<?xml version="1.0" standalone="no"?><!DOCTYPE svg PUBLIC "-//W3C//DTD SVG 1.1//EN" "http://www.w3.org/Graphics/SVG/1.1/DTD/svg11.dtd"><svg t="1653551134700" class="icon" viewBox="0 0 1131 1024" version="1.1" xmlns="http://www.w3.org/2000/svg" p-id="10024" xmlns:xlink="http://www.w3.org/1999/xlink" width="220.8984375" height="200"><defs><style type="text/css">@font-face { font-family: feedback-iconfont; src: url("//at.alicdn.com/t/font_1031158_u69w8yhxdu.woff2?t=1630033759944") format("woff2"), url("//at.alicdn.com/t/font_1031158_u69w8yhxdu.woff?t=1630033759944") format("woff"), url("//at.alicdn.com/t/font_1031158_u69w8yhxdu.ttf?t=1630033759944") format("truetype"); }
</style></defs><path d="M743.747368 862.315789H369.178947c-40.421053 0-75.452632-32.336842-75.452631-75.452631v-218.273684c0-40.421053 32.336842-75.452632 75.452631-75.452632h374.568421c40.421053 0 75.452632 32.336842 75.452632 75.452632v218.273684c-2.694737 43.115789-35.031579 75.452632-75.452632 75.452631zM369.178947 522.778947c-26.947368 0-48.505263 21.557895-48.505263 48.505264v218.273684c0 26.947368 21.557895 48.505263 48.505263 48.505263h374.568421c26.947368 0 48.505263-21.557895 48.505264-48.505263v-218.273684c0-26.947368-21.557895-48.505263-48.505264-48.505264H369.178947z" p-id="10025"></path><path d="M406.905 517.446c-5.389 0-10.779-2.695-13.474-10.779-5.389-13.474-5.389-29.642-5.389-45.811v-83.537c0-88.926 72.758-158.989 158.989-158.989s158.989 72.758 158.989 158.989c0 8.084-5.389 13.474-13.474 13.474s-13.474-5.389-13.474-13.474c0-72.758-59.284-132.042-132.042-132.042s-132.042 59.284-132.042 132.042v83.537c0 13.474 2.695 24.253 5.389 37.726 2.695 8.084-2.695 13.474-8.084 16.168-2.695 2.695-5.389 2.695-5.389 2.695z" p-id="10026"></path></svg>